<svg width="32" height="32" viewBox="0 0 32 32" fill="none" xmlns="http://www.w3.org/2000/svg">
<rect width="32" height="32" rx="16" fill="#F3F5F8"/>
<path d="M19.3333 17.3333C19.5101 17.3333 19.6797 17.2631 19.8047 17.1381C19.9298 17.013 20 16.8435 20 16.6667C20 16.4899 19.9298 16.3203 19.8047 16.1953C19.6797 16.0702 19.5101 16 19.3333 16C19.1565 16 18.987 16.0702 18.8619 16.1953C18.7369 16.3203 18.6667 16.4899 18.6667 16.6667C18.6667 16.8435 18.7369 17.013 18.8619 17.1381C18.987 17.2631 19.1565 17.3333 19.3333 17.3333ZM19.3333 20C19.5101 20 19.6797 19.9298 19.8047 19.8047C19.9298 19.6797 20 19.5101 20 19.3333C20 19.1565 19.9298 18.987 19.8047 18.8619C19.6797 18.7369 19.5101 18.6667 19.3333 18.6667C19.1565 18.6667 18.987 18.7369 18.8619 18.8619C18.7369 18.987 18.6667 19.1565 18.6667 19.3333C18.6667 19.5101 18.7369 19.6797 18.8619 19.8047C18.987 19.9298 19.1565 20 19.3333 20ZM16.6667 16.6667C16.6667 16.8435 16.5964 17.013 16.4714 17.1381C16.3464 17.2631 16.1768 17.3333 16 17.3333C15.8232 17.3333 15.6536 17.2631 15.5286 17.1381C15.4036 17.013 15.3333 16.8435 15.3333 16.6667C15.3333 16.4899 15.4036 16.3203 15.5286 16.1953C15.6536 16.0702 15.8232 16 16 16C16.1768 16 16.3464 16.0702 16.4714 16.1953C16.5964 16.3203 16.6667 16.4899 16.6667 16.6667ZM16.6667 19.3333C16.6667 19.5101 16.5964 19.6797 16.4714 19.8047C16.3464 19.9298 16.1768 20 16 20C15.8232 20 15.6536 19.9298 15.5286 19.8047C15.4036 19.6797 15.3333 19.5101 15.3333 19.3333C15.3333 19.1565 15.4036 18.987 15.5286 18.8619C15.6536 18.7369 15.8232 18.6667 16 18.6667C16.1768 18.6667 16.3464 18.7369 16.4714 18.8619C16.5964 18.987 16.6667 19.1565 16.6667 19.3333ZM12.6667 17.3333C12.8435 17.3333 13.013 17.2631 13.1381 17.1381C13.2631 17.013 13.3333 16.8435 13.3333 16.6667C13.3333 16.4899 13.2631 16.3203 13.1381 16.1953C13.013 16.0702 12.8435 16 12.6667 16C12.4899 16 12.3203 16.0702 12.1953 16.1953C12.0702 16.3203 12 16.4899 12 16.6667C12 16.8435 12.0702 17.013 12.1953 17.1381C12.3203 17.2631 12.4899 17.3333 12.6667 17.3333ZM12.6667 20C12.8435 20 13.013 19.9298 13.1381 19.8047C13.2631 19.6797 13.3333 19.5101 13.3333 19.3333C13.3333 19.1565 13.2631 18.987 13.1381 18.8619C13.013 18.7369 12.8435 18.6667 12.6667 18.6667C12.4899 18.6667 12.3203 18.7369 12.1953 18.8619C12.0702 18.987 12 19.1565 12 19.3333C12 19.5101 12.0702 19.6797 12.1953 19.8047C12.3203 19.9298 12.4899 20 12.6667 20Z" fill="#2B373D"/>
<path fill-rule="evenodd" clip-rule="evenodd" d="M12.7437 9C12.8732 9 12.9975 9.05268 13.0891 9.14645C13.1806 9.24021 13.2321 9.36739 13.2321 9.5V10.0087C13.6632 10 14.1379 10 14.6602 10H17.3385C17.8614 10 18.3362 10 18.7672 10.0087V9.5C18.7672 9.36739 18.8187 9.24021 18.9103 9.14645C19.0019 9.05268 19.1261 9 19.2556 9C19.3852 9 19.5094 9.05268 19.601 9.14645C19.6926 9.24021 19.744 9.36739 19.744 9.5V10.0513C19.9133 10.0647 20.0738 10.0816 20.2253 10.102C20.9885 10.2073 21.6064 10.4287 22.0942 10.9273C22.5813 11.4267 22.7975 12.0593 22.9004 12.8407C23 13.6007 23 14.5707 23 15.796V17.204C23 18.4293 23 19.4 22.9004 20.1593C22.7975 20.9407 22.5813 21.5733 22.0942 22.0727C21.6064 22.5713 20.9885 22.7927 20.2253 22.898C19.4829 23 18.5354 23 17.3385 23H14.6615C13.4646 23 12.5164 23 11.7747 22.898C11.0115 22.7927 10.3936 22.5713 9.90581 22.0727C9.41872 21.5733 9.20252 20.9407 9.09963 20.1593C9 19.3993 9 18.4293 9 17.204V15.796C9 14.5707 9 13.6 9.09963 12.8407C9.20252 12.0593 9.41872 11.4267 9.90581 10.9273C10.3936 10.4287 11.0115 10.2073 11.7747 10.102C11.9267 10.0816 12.0871 10.0647 12.256 10.0513V9.5C12.256 9.36751 12.3073 9.24043 12.3988 9.14668C12.4902 9.05293 12.6143 9.00018 12.7437 9ZM11.9037 11.0933C11.2492 11.1833 10.8715 11.3527 10.5961 11.6347C10.3206 11.9167 10.1552 12.3033 10.0673 12.9733C10.0525 13.0867 10.04 13.2064 10.0295 13.3327H21.9698C21.9594 13.2064 21.9468 13.0864 21.932 12.9727C21.8441 12.3027 21.6787 11.916 21.4033 11.634C21.1278 11.352 20.7501 11.1827 20.095 11.0927C19.4263 11.0007 18.5439 10.9993 17.3021 10.9993H14.6973C13.4555 10.9993 12.5737 11.0013 11.9037 11.0933ZM9.97614 15.8333C9.97614 15.264 9.97614 14.7687 9.9846 14.3333H22.0147C22.0232 14.7687 22.0232 15.264 22.0232 15.8333V17.1667C22.0232 18.438 22.0219 19.3413 21.932 20.0267C21.8441 20.6967 21.6787 21.0833 21.4033 21.3653C21.1278 21.6473 20.7501 21.8167 20.095 21.9067C19.4263 21.9987 18.5439 22 17.3021 22H14.6973C13.4555 22 12.5737 21.9987 11.9037 21.9067C11.2492 21.8167 10.8715 21.6473 10.5961 21.3653C10.3206 21.0833 10.1552 20.6967 10.0673 20.026C9.97744 19.3413 9.97614 18.438 9.97614 17.1667V15.8333Z" fill="#2B373D"/>
</svg>
