<svg width="10" height="6" viewBox="0 0 10 6" fill="none" xmlns="http://www.w3.org/2000/svg">
<path d="M9.63663 6.00064L6.87863 6.00064C6.80696 6.00029 6.73698 5.97879 6.67747 5.93884C6.61797 5.89888 6.57158 5.84224 6.54414 5.77603C6.51669 5.70981 6.5094 5.63697 6.52319 5.56663C6.53698 5.4963 6.57122 5.43159 6.62163 5.38064L7.64663 4.35464L5.50063 2.20764L3.85463 3.85464C3.80819 3.9012 3.75301 3.93815 3.69227 3.96335C3.63152 3.98856 3.5664 4.00153 3.50063 4.00153C3.43486 4.00153 3.36974 3.98856 3.309 3.96335C3.24825 3.93815 3.19308 3.9012 3.14663 3.85464L0.146631 0.854641C0.100143 0.808153 0.063267 0.752964 0.0381079 0.692224C0.0129488 0.631485 -4.73529e-07 0.566385 -4.80825e-07 0.500641C-4.88122e-07 0.434897 0.0129488 0.369797 0.0381079 0.309057C0.0632669 0.248318 0.100143 0.193129 0.146631 0.146641C0.193119 0.100153 0.248308 0.0632763 0.309048 0.0381174C0.369787 0.0129585 0.434887 9.49872e-06 0.500631 9.49298e-06C0.566375 9.48723e-06 0.631475 0.0129585 0.692214 0.0381173C0.752954 0.0632762 0.808143 0.100153 0.854631 0.146641L3.50063 2.79364L5.14663 1.14664C5.19308 1.10008 5.24825 1.06313 5.309 1.03793C5.36974 1.01272 5.43486 0.999747 5.50063 0.999747C5.5664 0.999747 5.63152 1.01272 5.69226 1.03793C5.75301 1.06313 5.80819 1.10008 5.85463 1.14664L8.35463 3.64664L9.37963 2.62164C9.60963 2.39164 10.0006 2.55464 10.0006 2.87864L10.0006 5.63664C10.0006 5.68444 9.99122 5.73177 9.97292 5.77594C9.95463 5.8201 9.92782 5.86023 9.89402 5.89403C9.86022 5.92783 9.82009 5.95464 9.77593 5.97293C9.73177 5.99122 9.68443 6.00064 9.63663 6.00064Z" fill="#A1A6A9"/>
</svg>
