<svg width="15" height="15" viewBox="0 0 15 15" fill="none" xmlns="http://www.w3.org/2000/svg">
<path fill-rule="evenodd" clip-rule="evenodd" d="M2.8 1H2.75C2.521 1 2.324 1 2.15 1.041C1.88064 1.10536 1.63435 1.24303 1.43843 1.43876C1.24251 1.63448 1.10461 1.88063 1.04 2.14991C1 2.3239 1 2.51988 1 2.74987V5.24967C1 5.47866 1 5.67564 1.041 5.84963C1.10536 6.11897 1.24305 6.36524 1.43879 6.56114C1.63453 6.75705 1.88069 6.89494 2.15 6.95954C2.324 6.99954 2.52 6.99954 2.75 6.99954H5.25C5.479 6.99954 5.676 6.99954 5.85 6.95854C6.11936 6.89418 6.36565 6.75651 6.56157 6.56078C6.75749 6.36505 6.89539 6.11891 6.96 5.84963C7 5.67564 7 5.47966 7 5.24967V2.74987C7 2.52088 7 2.3239 6.959 2.14991C6.89464 1.88057 6.75695 1.6343 6.56121 1.4384C6.36547 1.24249 6.11931 1.1046 5.85 1.04C5.676 1 5.48 1 5.25 1H2.8ZM2.383 2.01392C2.426 2.00392 2.493 1.99992 2.8 1.99992H5.2C5.508 1.99992 5.574 2.00292 5.617 2.01392C5.70683 2.0354 5.78895 2.08134 5.85426 2.14665C5.91957 2.21195 5.96552 2.29407 5.987 2.38389C5.997 2.42589 6 2.49189 6 2.79986V5.19968C6 5.50765 5.997 5.57365 5.986 5.61664C5.96452 5.70647 5.91857 5.78859 5.85326 5.85389C5.78795 5.9192 5.70583 5.96514 5.616 5.98662C5.575 5.99562 5.509 5.99962 5.2 5.99962H2.8C2.492 5.99962 2.426 5.99662 2.383 5.98562C2.29317 5.96414 2.21105 5.9182 2.14574 5.85289C2.08043 5.78759 2.03448 5.70547 2.013 5.61564C2.004 5.57465 2 5.50865 2 5.19968V2.79986C2 2.49189 2.003 2.42589 2.014 2.38289C2.03548 2.29307 2.08143 2.21095 2.14674 2.14565C2.21205 2.08034 2.29417 2.0344 2.384 2.01292M9.8 1H9.75C9.521 1 9.324 1 9.15 1.041C8.88064 1.10536 8.63435 1.24303 8.43843 1.43876C8.24251 1.63448 8.10461 1.88063 8.04 2.14991C8 2.3239 8 2.51988 8 2.74987V5.24967C8 5.47866 8 5.67564 8.041 5.84963C8.10537 6.11897 8.24305 6.36524 8.43879 6.56114C8.63453 6.75705 8.88069 6.89494 9.15 6.95954C9.324 6.99954 9.52 6.99954 9.75 6.99954H12.25C12.479 6.99954 12.676 6.99954 12.85 6.95854C13.1194 6.89418 13.3657 6.75651 13.5616 6.56078C13.7575 6.36505 13.8954 6.11891 13.96 5.84963C14 5.67564 14 5.47966 14 5.24967V2.74987C14 2.52088 14 2.3239 13.959 2.14991C13.8946 1.88057 13.757 1.6343 13.5612 1.4384C13.3655 1.24249 13.1193 1.1046 12.85 1.04C12.676 1 12.48 1 12.25 1H9.8ZM9.383 2.01392C9.426 2.00392 9.493 1.99992 9.8 1.99992H12.2C12.508 1.99992 12.574 2.00292 12.617 2.01392C12.7068 2.0354 12.789 2.08134 12.8543 2.14665C12.9196 2.21195 12.9655 2.29407 12.987 2.38389C12.997 2.42589 13 2.49189 13 2.79986V5.19968C13 5.50765 12.996 5.57365 12.986 5.61664C12.9645 5.70647 12.9186 5.78859 12.8533 5.85389C12.788 5.9192 12.7058 5.96514 12.616 5.98662C12.574 5.99662 12.508 5.99962 12.2 5.99962H9.8C9.492 5.99962 9.426 5.99662 9.383 5.98562C9.29317 5.96414 9.21105 5.9182 9.14574 5.85289C9.08043 5.78759 9.03448 5.70547 9.013 5.61564C9.004 5.57465 9 5.50865 9 5.19968V2.79986C9 2.49189 9.003 2.42589 9.014 2.38289C9.03548 2.29307 9.08142 2.21095 9.14674 2.14565C9.21205 2.08034 9.29417 2.0344 9.384 2.01292M2.75 7.99946H5.25C5.479 7.99946 5.676 7.99946 5.85 8.04046C6.11936 8.10482 6.36565 8.24249 6.56157 8.43822C6.75749 8.63394 6.89539 8.88009 6.96 9.14937C7 9.32336 7 9.51934 7 9.74933V12.2491C7 12.4781 7 12.6751 6.959 12.8491C6.89464 13.1184 6.75695 13.3647 6.56121 13.5606C6.36547 13.7565 6.11931 13.8944 5.85 13.959C5.676 13.999 5.48 13.999 5.25 13.999H2.75C2.521 13.999 2.324 13.999 2.15 13.958C1.88064 13.8936 1.63435 13.756 1.43843 13.5602C1.24251 13.3645 1.10461 13.1184 1.04 12.8491C1 12.6751 1 12.4791 1 12.2491V9.74933C1 9.52034 1 9.32336 1.041 9.14937C1.10536 8.88003 1.24305 8.63376 1.43879 8.43786C1.63453 8.24195 1.88069 8.10406 2.15 8.03946C2.324 7.99946 2.52 7.99946 2.75 7.99946ZM2.8 8.99938C2.492 8.99938 2.426 9.00238 2.383 9.01338C2.29317 9.03486 2.21105 9.0808 2.14574 9.14611C2.08043 9.21141 2.03448 9.29353 2.013 9.38336C2.004 9.42435 2 9.49035 2 9.79932V12.1991C2 12.5071 2.003 12.5731 2.014 12.6161C2.03548 12.7059 2.08143 12.788 2.14674 12.8534C2.21205 12.9187 2.29417 12.9646 2.384 12.9861C2.426 12.9961 2.492 12.9991 2.8 12.9991H5.2C5.508 12.9991 5.574 12.9951 5.617 12.9851C5.70683 12.9636 5.78895 12.9177 5.85426 12.8524C5.91957 12.787 5.96552 12.7049 5.987 12.6151C5.997 12.5731 6 12.5071 6 12.1991V9.79932C6 9.49135 5.997 9.42535 5.986 9.38236C5.96452 9.29253 5.91857 9.21041 5.85326 9.14511C5.78795 9.0798 5.70583 9.03386 5.616 9.01238C5.575 9.00338 5.509 8.99938 5.2 8.99938H2.8ZM9.8 7.99946H9.75C9.521 7.99946 9.324 7.99946 9.15 8.04046C8.88064 8.10482 8.63435 8.24249 8.43843 8.43822C8.24251 8.63394 8.10461 8.88009 8.04 9.14937C8 9.32336 8 9.51934 8 9.74933V12.2491C8 12.4781 8 12.6751 8.041 12.8491C8.10537 13.1184 8.24305 13.3647 8.43879 13.5606C8.63453 13.7565 8.88069 13.8944 9.15 13.959C9.324 14 9.521 14 9.75 14H12.25C12.479 14 12.676 14 12.85 13.959C13.1192 13.8945 13.3653 13.7567 13.561 13.561C13.7567 13.3653 13.8945 13.1192 13.959 12.8501C14 12.6761 14 12.4791 14 12.2501V9.75033C14 9.52134 14 9.32436 13.959 9.15037C13.8948 8.88085 13.7572 8.63437 13.5614 8.43828C13.3657 8.24218 13.1194 8.10414 12.85 8.03946C12.676 7.99946 12.48 7.99946 12.25 7.99946H9.8ZM9.383 9.01338C9.426 9.00338 9.493 8.99938 9.8 8.99938H12.2C12.508 8.99938 12.574 9.00238 12.617 9.01338C12.7068 9.03486 12.789 9.0808 12.8543 9.14611C12.9196 9.21141 12.9655 9.29353 12.987 9.38336C12.997 9.42535 13 9.49135 13 9.79932V12.1991C13 12.5071 12.996 12.5731 12.986 12.6161C12.9645 12.7059 12.9186 12.788 12.8533 12.8534C12.788 12.9187 12.7058 12.9646 12.616 12.9861C12.574 12.9961 12.508 12.9991 12.2 12.9991H9.8C9.492 12.9991 9.426 12.9951 9.383 12.9851C9.29317 12.9636 9.21105 12.9177 9.14574 12.8524C9.08043 12.787 9.03448 12.7049 9.013 12.6151C9.004 12.5741 9 12.5081 9 12.1991V9.79932C9 9.49135 9.003 9.42535 9.014 9.38236C9.03548 9.29253 9.08142 9.21041 9.14674 9.14511C9.21205 9.0798 9.29417 9.03386 9.384 9.01238" fill="white"/>
</svg>
