<svg width="48" height="23" viewBox="0 0 48 23" fill="none" xmlns="http://www.w3.org/2000/svg">
<path d="M-2.38419e-06 16.8V1.90735e-06H2.496V14.304H9.732V16.8H-2.38419e-06ZM15.6169 17.112C14.5129 17.112 13.5049 16.828 12.5929 16.26C11.6889 15.692 10.9649 14.932 10.4209 13.98C9.88487 13.02 9.61687 11.96 9.61687 10.8C9.61687 9.92 9.77287 9.1 10.0849 8.34C10.3969 7.572 10.8249 6.9 11.3689 6.324C11.9209 5.74 12.5609 5.284 13.2889 4.956C14.0169 4.628 14.7929 4.464 15.6169 4.464C16.7209 4.464 17.7249 4.748 18.6289 5.316C19.5409 5.884 20.2649 6.648 20.8009 7.608C21.3449 8.568 21.6169 9.632 21.6169 10.8C21.6169 11.672 21.4609 12.488 21.1489 13.248C20.8369 14.008 20.4049 14.68 19.8529 15.264C19.3089 15.84 18.6729 16.292 17.9449 16.62C17.2249 16.948 16.4489 17.112 15.6169 17.112ZM15.6169 14.616C16.2809 14.616 16.8769 14.44 17.4049 14.088C17.9329 13.736 18.3489 13.272 18.6529 12.696C18.9649 12.112 19.1209 11.48 19.1209 10.8C19.1209 10.104 18.9609 9.464 18.6409 8.88C18.3289 8.296 17.9089 7.832 17.3809 7.488C16.8529 7.136 16.2649 6.96 15.6169 6.96C14.9609 6.96 14.3649 7.136 13.8289 7.488C13.3009 7.84 12.8809 8.308 12.5689 8.892C12.2649 9.476 12.1129 10.112 12.1129 10.8C12.1129 11.512 12.2729 12.156 12.5929 12.732C12.9129 13.308 13.3369 13.768 13.8649 14.112C14.4009 14.448 14.9849 14.616 15.6169 14.616ZM31.7042 4.8H34.2002V17.112C34.2002 17.936 34.0242 18.696 33.6722 19.392C33.3282 20.088 32.8602 20.688 32.2682 21.192C31.6762 21.704 30.9962 22.1 30.2282 22.38C29.4682 22.66 28.6722 22.8 27.8402 22.8C27.0002 22.8 26.1922 22.62 25.4162 22.26C24.6402 21.908 23.9562 21.428 23.3642 20.82C22.7802 20.212 22.3442 19.524 22.0562 18.756L24.3482 17.724C24.5082 18.22 24.7642 18.66 25.1162 19.044C25.4762 19.428 25.8922 19.732 26.3642 19.956C26.8442 20.18 27.3362 20.292 27.8402 20.292C28.3362 20.292 28.8122 20.212 29.2682 20.052C29.7322 19.9 30.1442 19.684 30.5042 19.404C30.8722 19.124 31.1642 18.788 31.3802 18.396C31.5962 18.004 31.7042 17.576 31.7042 17.112V15.084C31.3122 15.692 30.8082 16.184 30.1922 16.56C29.5762 16.928 28.8602 17.112 28.0442 17.112C27.1962 17.112 26.3962 16.948 25.6442 16.62C24.8922 16.292 24.2322 15.84 23.6642 15.264C23.0962 14.68 22.6522 14.008 22.3322 13.248C22.0122 12.488 21.8522 11.672 21.8522 10.8C21.8522 9.928 22.0122 9.112 22.3322 8.352C22.6522 7.584 23.0962 6.912 23.6642 6.336C24.2322 5.752 24.8922 5.296 25.6442 4.968C26.3962 4.64 27.1962 4.476 28.0442 4.476C28.8602 4.476 29.5762 4.664 30.1922 5.04C30.8082 5.408 31.3122 5.9 31.7042 6.516V4.8ZM28.0682 14.7C28.7642 14.7 29.3722 14.524 29.8922 14.172C30.4122 13.812 30.8162 13.336 31.1042 12.744C31.3922 12.152 31.5362 11.504 31.5362 10.8C31.5362 10.08 31.3882 9.428 31.0922 8.844C30.8042 8.252 30.4002 7.78 29.8802 7.428C29.3602 7.068 28.7562 6.888 28.0682 6.888C27.3962 6.888 26.7802 7.064 26.2202 7.416C25.6682 7.768 25.2282 8.24 24.9002 8.832C24.5722 9.424 24.4082 10.08 24.4082 10.8C24.4082 11.52 24.5722 12.176 24.9002 12.768C25.2362 13.36 25.6802 13.832 26.2322 14.184C26.7922 14.528 27.4042 14.7 28.0682 14.7ZM41.1891 17.112C40.0851 17.112 39.0771 16.828 38.1651 16.26C37.2611 15.692 36.5371 14.932 35.9931 13.98C35.4571 13.02 35.1891 11.96 35.1891 10.8C35.1891 9.92 35.3451 9.1 35.6571 8.34C35.9691 7.572 36.3971 6.9 36.9411 6.324C37.4931 5.74 38.1331 5.284 38.8611 4.956C39.5891 4.628 40.3651 4.464 41.1891 4.464C42.2931 4.464 43.2971 4.748 44.2011 5.316C45.1131 5.884 45.8371 6.648 46.3731 7.608C46.9171 8.568 47.1891 9.632 47.1891 10.8C47.1891 11.672 47.0331 12.488 46.7211 13.248C46.4091 14.008 45.9771 14.68 45.4251 15.264C44.8811 15.84 44.2451 16.292 43.5171 16.62C42.7971 16.948 42.0211 17.112 41.1891 17.112ZM41.1891 14.616C41.8531 14.616 42.4491 14.44 42.9771 14.088C43.5051 13.736 43.9211 13.272 44.2251 12.696C44.5371 12.112 44.6931 11.48 44.6931 10.8C44.6931 10.104 44.5331 9.464 44.2131 8.88C43.9011 8.296 43.4811 7.832 42.9531 7.488C42.4251 7.136 41.8371 6.96 41.1891 6.96C40.5331 6.96 39.9371 7.136 39.4011 7.488C38.8731 7.84 38.4531 8.308 38.1411 8.892C37.8371 9.476 37.6851 10.112 37.6851 10.8C37.6851 11.512 37.8451 12.156 38.1651 12.732C38.4851 13.308 38.9091 13.768 39.4371 14.112C39.9731 14.448 40.5571 14.616 41.1891 14.616Z" fill="#2B373D"/>
</svg>
