<svg width="14" height="14" viewBox="0 0 14 14" fill="none" xmlns="http://www.w3.org/2000/svg">
<path d="M4.39986 10.9H1.14969C1.03893 10.8999 0.93002 10.8716 0.833298 10.8176C0.736576 10.7637 0.655248 10.6859 0.597032 10.5916C0.538816 10.4974 0.505642 10.3899 0.500658 10.2792C0.495675 10.1686 0.519047 10.0585 0.568557 9.95945L1.79972 7.49595V5.7C1.79972 4.32087 2.34761 2.99823 3.32285 2.02304C4.29809 1.04786 5.6208 0.5 7 0.5C8.3792 0.5 9.70191 1.04786 10.6772 2.02304C11.6524 2.99823 12.2003 4.32087 12.2003 5.7V7.4966L13.4314 9.95945C13.481 10.0585 13.5043 10.1686 13.4993 10.2792C13.4944 10.3899 13.4612 10.4974 13.403 10.5916C13.3448 10.6859 13.2634 10.7637 13.1667 10.8176C13.07 10.8716 12.9611 10.8999 12.8503 10.9H9.60014M4.39986 10.9H9.60014M4.39986 10.9C4.39986 11.5896 4.6738 12.2509 5.16142 12.7385C5.64905 13.2261 6.3104 13.5 7 13.5C7.6896 13.5 8.35096 13.2261 8.83858 12.7385C9.3262 12.2509 9.60014 11.5896 9.60014 10.9" stroke="#2B373D" stroke-linecap="round" stroke-linejoin="round"/>
</svg>
