<svg width="20" height="20" viewBox="0 0 20 20" fill="none" xmlns="http://www.w3.org/2000/svg">
<path d="M10 11C11.1046 11 12 10.3284 12 9.5C12 8.67157 11.1046 8 10 8C8.89543 8 8 8.67157 8 9.5C8 10.3284 8.89543 11 10 11Z" stroke="#2B373D"/>
<path d="M4.19866 4.84687L4.41841 4.48143C4.33213 4.43365 4.23146 4.41537 4.13292 4.4296C4.03438 4.44383 3.94381 4.48972 3.87607 4.55974L4.19866 4.84687ZM2.44155 7.76361L2.0214 7.63899C1.99215 7.7301 1.99605 7.82803 2.03246 7.91674C2.06886 8.00546 2.13562 8.07971 2.22181 8.12736L2.44155 7.76361ZM2.4398 12.2356L2.22005 11.871C2.13368 11.9186 2.06679 11.993 2.03037 12.0819C1.99396 12.1708 1.99017 12.2689 2.01964 12.3602L2.4398 12.2356ZM4.19778 15.1523L3.87519 15.4386C3.94293 15.5086 4.0335 15.5545 4.13204 15.5687C4.23058 15.5829 4.33125 15.5647 4.41753 15.5169L4.19778 15.1523ZM8.24114 17.3878H7.80164C7.80159 17.4834 7.83551 17.5762 7.89781 17.6509C7.96012 17.7256 8.0471 17.7777 8.14445 17.7987L8.24114 17.3878ZM11.758 17.3895L11.8556 17.8004C11.9527 17.7792 12.0395 17.727 12.1017 17.6524C12.1638 17.5777 12.1976 17.485 12.1975 17.3895H11.758ZM15.8022 15.1531L15.5825 15.5177C15.6687 15.5655 15.7694 15.5838 15.868 15.5696C15.9665 15.5553 16.0571 15.5094 16.1248 15.4394L15.8022 15.1531ZM17.5584 12.2347L17.9786 12.3593C18.0078 12.2682 18.0039 12.1703 17.9675 12.0816C17.9311 11.9929 17.8644 11.9186 17.7782 11.871L17.5584 12.2347ZM17.5602 7.76277L17.78 8.12736C17.8663 8.07968 17.9332 8.00528 17.9696 7.91639C18.006 7.82749 18.0098 7.72938 17.9804 7.63815L17.5602 7.76277ZM15.8022 4.84518L16.1248 4.5589C16.0571 4.48888 15.9665 4.44299 15.868 4.42876C15.7694 4.41453 15.6687 4.43281 15.5825 4.48059L15.8022 4.84518ZM11.7589 2.61132H12.1984C12.1983 2.51598 12.1644 2.42349 12.1023 2.349C12.0401 2.27451 11.9535 2.22242 11.8564 2.20125L11.7589 2.61132ZM8.2429 2.60963L8.14533 2.19873C8.04798 2.21976 7.961 2.2719 7.89869 2.34658C7.83639 2.42126 7.80247 2.51403 7.80252 2.60963H8.2429ZM2.86171 7.88823C3.19178 6.86203 3.75867 5.92012 4.52037 5.13231L3.87607 4.55974C3.02444 5.44014 2.39056 6.492 2.0214 7.63899L2.86171 7.88823ZM3.52974 13.5786C3.25022 13.1151 3.02585 12.6231 2.86083 12.1118L2.02052 12.361C2.20542 12.9323 2.45662 13.4819 2.76942 13.9996L3.52974 13.5786ZM4.52125 14.8668C4.14181 14.4742 3.80865 14.0421 3.52974 13.5786L2.76942 13.9996C3.08097 14.5176 3.45217 15.0006 3.87607 15.4394L4.52125 14.8668ZM11.6613 16.9803C10.5682 17.2184 9.43326 17.2178 8.34046 16.9786L8.14533 17.7987C9.3665 18.0662 10.6349 18.0671 11.8564 17.8013L11.6613 16.9803ZM17.14 12.1118C16.81 13.138 16.2431 14.0799 15.4814 14.8677L16.1257 15.4403C16.9773 14.5599 17.6112 13.5072 17.9804 12.3602L17.14 12.1118ZM16.472 6.42143C16.7568 6.89549 16.9792 7.38723 17.1418 7.88823L17.9812 7.63899C17.7963 7.0677 17.5451 6.51808 17.2323 6.00043L16.472 6.42143ZM15.4805 5.13315C15.8599 5.52576 16.1931 5.95789 16.472 6.42143L17.2323 6.00043C16.9208 5.48237 16.5496 4.9994 16.1257 4.56058L15.4805 5.13315ZM8.34046 3.01969C9.43352 2.78161 10.5685 2.78219 11.6613 3.02138L11.8564 2.20125C10.6353 1.93377 9.3669 1.93291 8.14533 2.19873L8.34046 3.01969ZM8.68239 4.16652V2.60879H7.8034V4.16652H8.68239ZM5.82567 5.25945L4.41841 4.48143L3.97891 5.20977L5.3853 5.98864L5.82567 5.25945ZM3.62819 11.0929L2.22005 11.871L2.66042 12.6001L4.06681 11.8221L3.62819 11.0929ZM4.06769 8.17619L2.6613 7.39901L2.22181 8.1282L3.62819 8.90538L4.06769 8.17619ZM8.68239 17.3878V15.8326H7.8034V17.3878H8.68239ZM5.38617 14.0097L3.97891 14.7877L4.41841 15.5169L5.82479 14.7389L5.38617 14.0097ZM16.0228 14.7885L14.6156 14.0097L14.1761 14.7397L15.5825 15.5177L16.0228 14.7885ZM12.1984 17.3904V15.8326H11.3194V17.3904H12.1984ZM17.3413 7.39817L15.9341 8.17619L16.3736 8.90538L17.78 8.12736L17.3413 7.39817ZM17.7791 11.8701L16.3736 11.0946L15.9341 11.8238L17.3405 12.601L17.7791 11.8701ZM12.1984 4.16652V2.61132H11.3194V4.16652H12.1984ZM15.5834 4.48143L14.1761 5.2603L14.6156 5.98948L16.0228 5.21062L15.5834 4.48143ZM11.3194 4.16652C11.3194 5.78656 13.1503 6.7995 14.6156 5.98948L14.1761 5.2603C13.9756 5.37118 13.7481 5.42954 13.5166 5.42951C13.2851 5.42947 13.0577 5.37104 12.8572 5.26009C12.6568 5.14914 12.4903 4.98959 12.3747 4.79747C12.259 4.60535 12.1982 4.38829 12.1984 4.16652H11.3194ZM15.9341 8.17704C14.4688 8.98706 14.4688 11.0129 15.9341 11.823L16.3736 11.0938C16.1731 10.9829 16.0067 10.8235 15.891 10.6315C15.7753 10.4395 15.7144 10.2217 15.7144 10C15.7144 9.7783 15.7753 9.56051 15.891 9.36852C16.0067 9.17652 16.1731 9.01708 16.3736 8.90622L15.9341 8.17704ZM14.6156 14.0105C13.1503 13.2005 11.3194 14.2118 11.3194 15.8326H12.1984C12.1984 15.6109 12.2593 15.394 12.375 15.202C12.4907 15.01 12.6572 14.8505 12.8576 14.7397C13.058 14.6288 13.2854 14.5705 13.5169 14.5705C13.7483 14.5705 13.9757 14.6289 14.1761 14.7397L14.6156 14.0105ZM8.68239 15.8326C8.68239 14.2126 6.85145 13.2005 5.38617 14.0105L5.82567 14.7397C6.02617 14.6288 6.25361 14.5705 6.48512 14.5705C6.71664 14.5705 6.94406 14.629 7.14452 14.7399C7.34498 14.8509 7.51141 15.0104 7.62707 15.2025C7.74273 15.3946 7.80355 15.6125 7.8034 15.8343L8.68239 15.8326ZM4.06769 11.823C5.53297 11.0129 5.53297 8.98706 4.06769 8.17704L3.62819 8.90622C4.50718 9.39207 4.50718 10.6063 3.62819 11.0929L4.06769 11.823ZM7.8034 4.16652C7.80324 4.38815 7.7422 4.60584 7.62641 4.79772C7.51063 4.9896 7.34417 5.14892 7.14376 5.25967C6.94335 5.37042 6.71605 5.42871 6.48469 5.42867C6.25332 5.42863 6.02604 5.37027 5.82567 5.25945L5.38617 5.98948C6.85145 6.7995 8.68239 5.7874 8.68239 4.16652H7.8034Z" fill="#2B373D"/>
</svg>
