<svg width="32" height="32" viewBox="0 0 32 32" fill="none" xmlns="http://www.w3.org/2000/svg">
<rect width="32" height="32" rx="16" fill="#F3F5F8"/>
<path d="M16.0352 24C14.9209 24 13.8767 23.7913 12.9025 23.374C11.9282 22.9567 11.0771 22.3853 10.3493 21.66C9.62143 20.9347 9.04759 20.0873 8.62775 19.118C8.20792 18.1487 7.99867 17.1093 8.00001 16C8.00135 14.8907 8.21093 13.8513 8.62876 12.882C9.04658 11.9127 9.62043 11.0653 10.3503 10.34C11.0801 9.61467 11.9305 9.04333 12.9014 8.626C13.8724 8.20867 14.9166 8 16.0342 8C17.1879 8 18.2867 8.23733 19.3306 8.712C20.3745 9.186 21.2845 9.84733 22.0605 10.696V8.308H23.0649V12.462H18.8937V11.462H21.3846C20.6855 10.6953 19.8786 10.0933 18.964 9.656C18.0506 9.21867 17.0744 9 16.0352 9C14.0759 9 12.4143 9.67933 11.0504 11.038C9.68638 12.3967 9.00407 14.0507 9.0034 16C9.00273 17.9493 9.68504 19.6037 11.0504 20.963C12.4157 22.3223 14.0769 23.0013 16.0342 23C17.7918 23 19.3215 22.43 20.6232 21.29C21.9249 20.15 22.7117 18.72 22.9836 17H24C23.7616 19.014 22.8845 20.684 21.3685 22.01C19.8525 23.3367 18.0747 24 16.0352 24ZM19.195 19.854L15.532 16.208V11H16.5363V15.792L19.9051 19.146L19.195 19.854Z" fill="#2B373D"/>
</svg>
